<?xml version="1.0" encoding="iso-8859-1"?>
<!-- Icon made by [Freepik](https://www.flaticon.com/authors/freepik) from https://www.flaticon.com -->
<!-- Generator: Adobe Illustrator 18.0.0, SVG Export Plug-In . SVG Version: 6.00 Build 0)  -->
<!DOCTYPE svg PUBLIC "-//W3C//DTD SVG 1.1//EN" "http://www.w3.org/Graphics/SVG/1.1/DTD/svg11.dtd">
<svg version="1.1" id="Capa_1" xmlns="http://www.w3.org/2000/svg" xmlns:xlink="http://www.w3.org/1999/xlink" x="0px" y="0px"
	 viewBox="0 0 512 512" width="100%" height="100%" style="enable-background:new 0 0 512 512;" xml:space="preserve">
<g>
	<path d="M497.938,430.063l-112-112c-0.367-0.367-0.805-0.613-1.18-0.965C404.438,285.332,416,248.035,416,208
		C416,93.313,322.695,0,208,0S0,93.313,0,208s93.305,208,208,208c40.035,0,77.332-11.563,109.098-31.242
		c0.354,0.375,0.598,0.813,0.965,1.18l112,112C439.43,507.313,451.719,512,464,512c12.281,0,24.57-4.688,33.938-14.063
		C516.688,479.203,516.688,448.797,497.938,430.063z M64,208c0-79.406,64.602-144,144-144s144,64.594,144,144
		c0,79.406-64.602,144-144,144S64,287.406,64,208z"/>
	<path d="M272,176H144c-17.672,0-32,14.328-32,32s14.328,32,32,32h128c17.672,0,32-14.328,32-32S289.672,176,272,176z"/>
</g>
<g>
</g>
<g>
</g>
<g>
</g>
<g>
</g>
<g>
</g>
<g>
</g>
<g>
</g>
<g>
</g>
<g>
</g>
<g>
</g>
<g>
</g>
<g>
</g>
<g>
</g>
<g>
</g>
<g>
</g>
</svg>
